<?xml version="1.0" encoding="UTF-8"?>
<svg width="24px" height="24px" viewBox="0 0 24 24" version="1.1" xmlns="http://www.w3.org/2000/svg">
    <g stroke="none" stroke-width="1" fill="none" fill-rule="evenodd">
        <path d="M6.5,21 C4.01471863,21 2,18.9852814 2,16.5 C2,14.0147186 4.01471863,12 6.5,12 C8.98528137,12 11,14.0147186 11,16.5 C11,18.9852814 8.98528137,21 6.5,21 Z M17.5,21 C15.0147186,21 13,18.9852814 13,16.5 C13,14.0147186 15.0147186,12 17.5,12 C19.9852814,12 22,14.0147186 22,16.5 C22,18.9852814 19.9852814,21 17.5,21 Z M12,16.5 C12,13.4624339 14.4624339,11 17.5,11 C20.5375661,11 23,13.4624339 23,16.5 C23,19.5375661 20.5375661,22 17.5,22 C14.4624339,22 12,19.5375661 12,16.5 Z" fill="#D84315"/>
    </g>
</svg>
